<?xml version="1.0" encoding="utf-8" standalone="no"?>
<!DOCTYPE svg PUBLIC "-//W3C//DTD SVG 1.1//EN"
  "http://www.w3.org/Graphics/SVG/1.1/DTD/svg11.dtd">
<svg xmlns:xlink="http://www.w3.org/1999/xlink" width="662.4pt" height="360pt" viewBox="0 0 662.4 360" xmlns="http://www.w3.org/2000/svg" version="1.1">
 <metadata>
  <rdf:RDF xmlns:dc="http://purl.org/dc/elements/1.1/" xmlns:cc="http://creativecommons.org/ns#" xmlns:rdf="http://www.w3.org/1999/02/22-rdf-syntax-ns#">
   <cc:Work>
    <dc:type rdf:resource="http://purl.org/dc/dcmitype/StillImage"/>
    <dc:format>image/svg+xml</dc:format>
    <dc:creator>
     <cc:Agent>
      <dc:title>Matplotlib v3.9.2, https://matplotlib.org/</dc:title>
     </cc:Agent>
    </dc:creator>
   </cc:Work>
  </rdf:RDF>
 </metadata>
 <defs>
  <style type="text/css">*{stroke-linejoin: round; stroke-linecap: butt}</style>
 </defs>
 <g id="figure_1">
  <g id="patch_1">
   <path d="M 0 360 
L 662.4 360 
L 662.4 0 
L 0 0 
z
" style="fill: #f7f5ee"/>
  </g>
  <g id="axes_1">
   <g id="patch_2">
    <path d="M 44.3 333.65 
L 651.6 333.65 
L 651.6 65.376 
L 44.3 65.376 
z
" style="fill: #f7f5ee"/>
   </g>
   <g id="matplotlib.axis_1">
    <g id="xtick_1">
     <g id="line2d_1">
      <defs>
       <path id="m7832b9e19c" d="M 0 0 
L 0 3.5 
" style="stroke: #555650; stroke-width: 0.8"/>
      </defs>
      <g>
       <use xlink:href="#m7832b9e19c" x="143.656066" y="333.65" style="fill: #555650; stroke: #555650; stroke-width: 0.8"/>
      </g>
     </g>
     <g id="text_1">
      <text style="fill: #555650; font: 8.5px 'DejaVu Sans'; text-anchor: middle" x="143.656066" y="347.108672" transform="rotate(-0 143.656066 347.108672)">2025-04</text>
     </g>
    </g>
    <g id="xtick_2">
     <g id="line2d_2">
      <g>
       <use xlink:href="#m7832b9e19c" x="245.244853" y="333.65" style="fill: #555650; stroke: #555650; stroke-width: 0.8"/>
      </g>
     </g>
     <g id="text_2">
      <text style="fill: #555650; font: 8.5px 'DejaVu Sans'; text-anchor: middle" x="245.244853" y="347.108672" transform="rotate(-0 245.244853 347.108672)">2025-07</text>
     </g>
    </g>
    <g id="xtick_3">
     <g id="line2d_3">
      <g>
       <use xlink:href="#m7832b9e19c" x="347.95" y="333.65" style="fill: #555650; stroke: #555650; stroke-width: 0.8"/>
      </g>
     </g>
     <g id="text_3">
      <text style="fill: #555650; font: 8.5px 'DejaVu Sans'; text-anchor: middle" x="347.95" y="347.108672" transform="rotate(-0 347.95 347.108672)">2025-10</text>
     </g>
    </g>
    <g id="xtick_4">
     <g id="line2d_4">
      <g>
       <use xlink:href="#m7832b9e19c" x="450.655147" y="333.65" style="fill: #555650; stroke: #555650; stroke-width: 0.8"/>
      </g>
     </g>
     <g id="text_4">
      <text style="fill: #555650; font: 8.5px 'DejaVu Sans'; text-anchor: middle" x="450.655147" y="347.108672" transform="rotate(-0 450.655147 347.108672)">2026-01</text>
     </g>
    </g>
    <g id="xtick_5">
     <g id="line2d_5">
      <g>
       <use xlink:href="#m7832b9e19c" x="551.127574" y="333.65" style="fill: #555650; stroke: #555650; stroke-width: 0.8"/>
      </g>
     </g>
     <g id="text_5">
      <text style="fill: #555650; font: 8.5px 'DejaVu Sans'; text-anchor: middle" x="551.127574" y="347.108672" transform="rotate(-0 551.127574 347.108672)">2026-04</text>
     </g>
    </g>
    <g id="xtick_6">
     <g id="line2d_6">
      <g>
       <use xlink:href="#m7832b9e19c" x="619.225551" y="333.65" style="fill: #555650; stroke: #555650; stroke-width: 0.8"/>
      </g>
     </g>
     <g id="text_6">
      <text style="fill: #555650; font: 8.5px 'DejaVu Sans'; text-anchor: middle" x="619.225551" y="347.108672" transform="rotate(-0 619.225551 347.108672)">2026-06</text>
     </g>
    </g>
   </g>
   <g id="matplotlib.axis_2">
    <g id="ytick_1">
     <g id="line2d_7">
      <path d="M 44.3 316.020055 
L 651.6 316.020055 
" clip-path="url(#p5740a7309a)" style="fill: none; stroke: #d7d2c5; stroke-width: 0.8; stroke-linecap: square"/>
     </g>
     <g id="line2d_8">
      <defs>
       <path id="mfa07c487e0" d="M 0 0 
L -3.5 0 
" style="stroke: #555650; stroke-width: 0.8"/>
      </defs>
      <g>
       <use xlink:href="#mfa07c487e0" x="44.3" y="316.020055" style="fill: #555650; stroke: #555650; stroke-width: 0.8"/>
      </g>
     </g>
     <g id="text_7">
      <text style="fill: #555650; font: 8.5px 'DejaVu Sans'; text-anchor: end" x="37.3" y="319.249391" transform="rotate(-0 37.3 319.249391)">1.0</text>
     </g>
    </g>
    <g id="ytick_2">
     <g id="line2d_9">
      <path d="M 44.3 272.227317 
L 651.6 272.227317 
" clip-path="url(#p5740a7309a)" style="fill: none; stroke: #d7d2c5; stroke-width: 0.8; stroke-linecap: square"/>
     </g>
     <g id="line2d_10">
      <g>
       <use xlink:href="#mfa07c487e0" x="44.3" y="272.227317" style="fill: #555650; stroke: #555650; stroke-width: 0.8"/>
      </g>
     </g>
     <g id="text_8">
      <text style="fill: #555650; font: 8.5px 'DejaVu Sans'; text-anchor: end" x="37.3" y="275.456653" transform="rotate(-0 37.3 275.456653)">1.5</text>
     </g>
    </g>
    <g id="ytick_3">
     <g id="line2d_11">
      <path d="M 44.3 228.434578 
L 651.6 228.434578 
" clip-path="url(#p5740a7309a)" style="fill: none; stroke: #d7d2c5; stroke-width: 0.8; stroke-linecap: square"/>
     </g>
     <g id="line2d_12">
      <g>
       <use xlink:href="#mfa07c487e0" x="44.3" y="228.434578" style="fill: #555650; stroke: #555650; stroke-width: 0.8"/>
      </g>
     </g>
     <g id="text_9">
      <text style="fill: #555650; font: 8.5px 'DejaVu Sans'; text-anchor: end" x="37.3" y="231.663914" transform="rotate(-0 37.3 231.663914)">2.0</text>
     </g>
    </g>
    <g id="ytick_4">
     <g id="line2d_13">
      <path d="M 44.3 184.64184 
L 651.6 184.64184 
" clip-path="url(#p5740a7309a)" style="fill: none; stroke: #d7d2c5; stroke-width: 0.8; stroke-linecap: square"/>
     </g>
     <g id="line2d_14">
      <g>
       <use xlink:href="#mfa07c487e0" x="44.3" y="184.64184" style="fill: #555650; stroke: #555650; stroke-width: 0.8"/>
      </g>
     </g>
     <g id="text_10">
      <text style="fill: #555650; font: 8.5px 'DejaVu Sans'; text-anchor: end" x="37.3" y="187.871176" transform="rotate(-0 37.3 187.871176)">2.5</text>
     </g>
    </g>
    <g id="ytick_5">
     <g id="line2d_15">
      <path d="M 44.3 140.849102 
L 651.6 140.849102 
" clip-path="url(#p5740a7309a)" style="fill: none; stroke: #d7d2c5; stroke-width: 0.8; stroke-linecap: square"/>
     </g>
     <g id="line2d_16">
      <g>
       <use xlink:href="#mfa07c487e0" x="44.3" y="140.849102" style="fill: #555650; stroke: #555650; stroke-width: 0.8"/>
      </g>
     </g>
     <g id="text_11">
      <text style="fill: #555650; font: 8.5px 'DejaVu Sans'; text-anchor: end" x="37.3" y="144.078438" transform="rotate(-0 37.3 144.078438)">3.0</text>
     </g>
    </g>
    <g id="ytick_6">
     <g id="line2d_17">
      <path d="M 44.3 97.056363 
L 651.6 97.056363 
" clip-path="url(#p5740a7309a)" style="fill: none; stroke: #d7d2c5; stroke-width: 0.8; stroke-linecap: square"/>
     </g>
     <g id="line2d_18">
      <g>
       <use xlink:href="#mfa07c487e0" x="44.3" y="97.056363" style="fill: #555650; stroke: #555650; stroke-width: 0.8"/>
      </g>
     </g>
     <g id="text_12">
      <text style="fill: #555650; font: 8.5px 'DejaVu Sans'; text-anchor: end" x="37.3" y="100.285699" transform="rotate(-0 37.3 100.285699)">3.5</text>
     </g>
    </g>
    <g id="text_13">
     <text style="fill: #454642; font: 9.5px 'DejaVu Sans'; text-anchor: middle" x="17.806641" y="199.513" transform="rotate(-90 17.806641 199.513)">Net value, start = 1</text>
    </g>
   </g>
   <g id="line2d_19">
    <path d="M 44.3 316.020055 
L 45.41636 316.558169 
L 48.765441 315.20664 
L 49.881801 315.201338 
L 50.998162 315.322141 
L 53.230882 316.215434 
L 56.579963 317.937111 
L 58.812684 317.413658 
L 59.929044 316.238263 
L 61.045404 316.605237 
L 65.510846 317.66457 
L 67.743566 320.16243 
L 68.859926 320.182533 
L 72.209007 321.455727 
L 82.25625 320.159321 
L 83.37261 318.071695 
L 84.488971 317.954021 
L 88.954412 316.638008 
L 90.070772 313.754406 
L 91.187132 315.949681 
L 92.303493 314.058687 
L 95.652574 311.531473 
L 96.768934 313.904375 
L 97.885294 312.855505 
L 99.001654 314.229531 
L 100.118015 308.488484 
L 103.467096 308.910151 
L 104.583456 311.558694 
L 105.699816 308.600217 
L 106.816176 310.305103 
L 107.932537 316.264463 
L 111.281618 316.204653 
L 112.397978 315.34147 
L 113.514338 313.231769 
L 114.630699 307.65493 
L 115.747059 308.899082 
L 119.09614 310.678658 
L 120.2125 310.226627 
L 121.32886 310.682549 
L 122.445221 312.142675 
L 123.561581 308.487274 
L 126.910662 308.906864 
L 128.027022 306.216859 
L 129.143382 305.610101 
L 130.259743 306.143229 
L 131.376103 308.757691 
L 134.725184 307.658748 
L 135.841544 307.520348 
L 136.957904 307.850306 
L 138.074265 308.510223 
L 139.190625 307.59871 
L 142.539706 307.715263 
L 143.656066 307.945012 
L 144.772426 309.185107 
L 145.888787 309.783391 
L 150.354228 315.959463 
L 151.470588 317.807478 
L 152.586949 317.853713 
L 153.703309 317.416141 
L 154.819669 316.585628 
L 158.16875 315.935869 
L 159.28511 316.444275 
L 161.517831 315.646651 
L 162.634191 315.919279 
L 165.983272 314.831527 
L 167.099632 312.756976 
L 168.215993 316.461162 
L 169.332353 315.702868 
L 170.448713 316.153831 
L 173.797794 316.912607 
L 174.914154 316.461644 
L 176.030515 316.574893 
L 183.845037 314.219868 
L 184.961397 315.203065 
L 186.077757 315.098667 
L 189.426838 315.846374 
L 190.543199 315.958343 
L 191.659559 314.739273 
L 192.775919 314.892333 
L 193.892279 315.435537 
L 197.24136 315.007494 
L 198.357721 314.276007 
L 199.474081 314.378126 
L 200.590441 314.653261 
L 201.706801 315.054295 
L 205.055882 315.448911 
L 207.288603 314.872559 
L 208.404963 314.83879 
L 209.521324 315.159118 
L 213.986765 314.251203 
L 215.103125 313.80805 
L 216.219485 313.6245 
L 217.335846 313.668789 
L 220.684926 312.781218 
L 221.801287 311.954322 
L 222.917647 310.248632 
L 224.034007 310.371068 
L 225.150368 312.2754 
L 228.499449 312.225107 
L 229.615809 312.854685 
L 230.732169 313.757356 
L 231.848529 316.290292 
L 232.96489 315.445828 
L 236.313971 313.308206 
L 237.430331 311.211727 
L 238.546691 310.205605 
L 239.663051 311.121114 
L 240.779412 310.362531 
L 244.128493 308.37748 
L 245.244853 306.705076 
L 246.361213 308.783291 
L 247.477574 307.097184 
L 248.593934 307.209566 
L 251.943015 307.075556 
L 253.059375 303.746074 
L 254.175735 303.780601 
L 255.292096 304.013233 
L 256.408456 302.609833 
L 259.757537 303.748124 
L 260.873897 300.473342 
L 261.990257 300.710076 
L 263.106618 298.098552 
L 264.222978 297.929988 
L 267.572059 297.963517 
L 269.804779 298.478356 
L 270.92114 297.238357 
L 272.0375 297.353578 
L 275.386581 294.299607 
L 276.502941 289.79104 
L 277.619301 291.14016 
L 278.735662 290.850276 
L 279.852022 292.369187 
L 283.201103 291.992125 
L 284.317463 289.517307 
L 285.433824 289.028075 
L 286.550184 290.689635 
L 287.666544 291.299574 
L 291.015625 289.743779 
L 292.131985 287.700881 
L 293.248346 281.489899 
L 294.364706 283.152993 
L 295.481066 281.527196 
L 298.830147 275.711775 
L 299.946507 271.360204 
L 301.062868 271.366093 
L 302.179228 272.771771 
L 303.295588 267.068048 
L 306.644669 258.460899 
L 307.761029 260.929311 
L 308.87739 257.644399 
L 309.99375 244.862681 
L 311.11011 245.762153 
L 314.459191 236.182376 
L 315.575551 246.095283 
L 316.691912 242.91618 
L 317.808272 254.069842 
L 318.924632 241.351484 
L 322.273713 242.25795 
L 323.390074 244.399752 
L 324.506434 247.01771 
L 325.622794 242.507987 
L 326.739154 243.936459 
L 330.088235 240.154743 
L 331.204596 238.726271 
L 332.320956 235.821496 
L 333.437316 236.045803 
L 334.553676 238.226198 
L 337.902757 236.823455 
L 339.019118 233.528947 
L 340.135478 227.517191 
L 341.251838 225.601511 
L 342.368199 228.331623 
L 345.717279 219.828741 
L 346.83364 214.40711 
L 356.880882 212.079596 
L 357.997243 225.980193 
L 361.346324 236.94897 
L 362.462684 243.869902 
L 363.579044 239.173422 
L 364.695404 236.153023 
L 365.811765 236.368909 
L 369.160846 241.113745 
L 370.277206 241.028574 
L 371.393566 244.816769 
L 372.509926 247.20759 
L 373.626287 243.344839 
L 376.975368 238.358239 
L 378.091728 237.308213 
L 379.208088 233.343036 
L 380.324449 233.129087 
L 381.440809 233.204434 
L 384.78989 227.383229 
L 385.90625 235.521433 
L 387.02261 238.885513 
L 388.138971 234.765172 
L 389.255331 235.303015 
L 392.604412 234.511038 
L 393.720772 234.386817 
L 394.837132 236.739754 
L 395.953493 232.704014 
L 397.069853 236.262216 
L 400.418934 235.188457 
L 401.535294 241.364398 
L 402.651654 240.714813 
L 403.768015 243.575747 
L 404.884375 247.510945 
L 408.233456 246.960904 
L 409.349816 244.221686 
L 410.466176 243.422748 
L 411.582537 241.820051 
L 412.698897 238.541107 
L 416.047978 230.866652 
L 417.164338 231.57758 
L 418.280699 227.743774 
L 419.397059 228.315119 
L 420.513419 226.525412 
L 423.8625 225.539464 
L 424.97886 228.523433 
L 426.095221 221.315117 
L 427.211581 217.211829 
L 428.327941 223.410284 
L 431.677022 227.73036 
L 432.793382 231.013921 
L 435.026103 215.671259 
L 436.142463 214.608981 
L 439.491544 203.094209 
L 440.607904 196.109904 
L 441.724265 179.051577 
L 443.956985 195.765399 
L 447.306066 204.760057 
L 448.422426 205.928844 
L 449.538787 193.822817 
L 455.120588 187.811105 
L 456.236949 173.974331 
L 457.353309 177.292018 
L 458.469669 165.55314 
L 459.586029 151.877507 
L 462.93511 126.727141 
L 464.051471 149.631883 
L 465.167831 148.251802 
L 466.284191 161.067732 
L 467.400551 162.530933 
L 470.749632 162.025444 
L 471.865993 172.105678 
L 472.982353 168.062016 
L 474.098713 168.811968 
L 475.215074 167.964953 
L 478.564154 171.811913 
L 479.680515 164.048834 
L 480.796875 153.060118 
L 481.913235 156.728421 
L 483.029596 153.52414 
L 486.378676 178.538235 
L 487.495037 169.203704 
L 488.611397 180.541753 
L 489.727757 196.674722 
L 490.844118 204.921083 
L 494.193199 207.281232 
L 496.425919 211.617608 
L 497.542279 207.826173 
L 498.65864 207.050335 
L 510.938603 196.888548 
L 512.054963 190.944357 
L 513.171324 178.092442 
L 514.287684 179.080861 
L 517.636765 171.731729 
L 518.753125 168.518549 
L 519.869485 176.699986 
L 522.102206 190.933878 
L 525.451287 178.013629 
L 526.567647 183.961885 
L 527.684007 183.095223 
L 528.800368 179.155828 
L 529.916728 176.909971 
L 533.265809 167.744295 
L 534.382169 157.159343 
L 535.498529 161.691685 
L 536.61489 146.115733 
L 537.73125 157.589421 
L 541.080331 155.382396 
L 542.196691 155.834283 
L 543.313051 161.470977 
L 544.429412 159.475823 
L 545.545772 160.48418 
L 548.894853 159.489306 
L 550.011213 169.770062 
L 551.127574 178.304878 
L 552.243934 179.81255 
L 553.360294 179.75071 
L 557.825735 170.846834 
L 558.942096 174.012608 
L 560.058456 176.058507 
L 561.174816 169.571707 
L 564.523897 169.007469 
L 565.640257 163.733527 
L 566.756618 167.267258 
L 567.872978 158.368324 
L 568.989338 151.129136 
L 572.338419 148.02496 
L 573.454779 148.231442 
L 574.57114 139.751625 
L 575.6875 146.376571 
L 576.80386 149.16361 
L 580.152941 148.130567 
L 581.269301 153.945512 
L 582.385662 157.797578 
L 583.502022 156.030095 
L 590.200184 138.926987 
L 591.316544 131.213562 
L 592.432904 132.410419 
L 595.781985 112.369051 
L 596.898346 113.525211 
L 598.014706 94.103789 
L 599.131066 96.066275 
L 600.247426 104.289702 
L 603.596507 111.192446 
L 605.829228 89.37123 
L 606.945588 101.721711 
L 608.061949 94.142067 
L 611.411029 77.570273 
L 612.52739 83.3386 
L 613.64375 91.529576 
L 614.76011 88.487357 
L 615.876471 103.44415 
L 619.225551 117.901229 
L 620.341912 111.338258 
L 621.458272 103.241339 
L 622.574632 104.599564 
L 623.690993 121.378366 
L 627.040074 137.213316 
L 628.156434 138.012344 
L 629.272794 143.955957 
L 630.389154 146.952029 
L 631.505515 147.52836 
L 635.970956 132.511932 
L 637.087316 130.68293 
L 638.203676 126.453169 
L 642.669118 123.526819 
L 643.785478 131.894206 
L 644.901838 122.155164 
L 646.018199 113.669265 
L 647.134559 118.388968 
L 650.48364 108.226953 
L 651.6 97.530731 
L 651.6 97.530731 
" clip-path="url(#p5740a7309a)" style="fill: none; stroke: #111312; stroke-width: 2.7; stroke-linecap: square"/>
   </g>
   <g id="line2d_20">
    <path d="M 44.3 316.020055 
L 45.41636 317.247957 
L 48.765441 317.268829 
L 49.881801 316.572087 
L 50.998162 316.969203 
L 52.114522 316.951362 
L 53.230882 318.18249 
L 56.579963 318.192729 
L 57.696324 315.674147 
L 58.812684 316.15977 
L 61.045404 315.361753 
L 65.510846 314.834255 
L 66.627206 315.41577 
L 67.743566 315.631392 
L 68.859926 314.575411 
L 72.209007 315.222996 
L 82.25625 314.511391 
L 83.37261 312.901911 
L 84.488971 311.726485 
L 87.838051 311.00481 
L 88.954412 311.580928 
L 90.070772 310.504667 
L 91.187132 310.790606 
L 92.303493 309.990284 
L 95.652574 309.808428 
L 96.768934 310.886334 
L 97.885294 309.6343 
L 99.001654 309.861429 
L 100.118015 308.240768 
L 103.467096 308.33355 
L 104.583456 309.535352 
L 105.699816 308.389808 
L 106.816176 308.586797 
L 107.932537 311.315033 
L 113.514338 310.318378 
L 114.630699 308.506368 
L 115.747059 309.020164 
L 120.2125 309.281825 
L 121.32886 309.290241 
L 122.445221 309.986368 
L 123.561581 308.095412 
L 126.910662 308.101036 
L 128.027022 307.568196 
L 129.143382 308.015005 
L 130.259743 308.614598 
L 131.376103 310.169605 
L 134.725184 310.086212 
L 135.841544 310.457717 
L 138.074265 310.277368 
L 139.190625 310.844054 
L 142.539706 311.826957 
L 143.656066 311.288776 
L 144.772426 311.343206 
L 145.888787 311.986712 
L 150.354228 320.04729 
L 151.470588 319.53624 
L 152.586949 318.277289 
L 153.703309 316.169684 
L 154.819669 315.624389 
L 158.16875 314.76356 
L 159.28511 315.091486 
L 160.401471 315.591916 
L 161.517831 315.432691 
L 162.634191 315.450332 
L 165.983272 314.556658 
L 167.099632 314.477271 
L 168.215993 314.078222 
L 169.332353 314.655664 
L 170.448713 314.305381 
L 173.797794 314.750413 
L 174.914154 314.756546 
L 176.030515 314.302731 
L 182.728676 312.753214 
L 183.845037 312.755541 
L 184.961397 312.365521 
L 186.077757 313.001722 
L 189.426838 312.043614 
L 190.543199 312.115951 
L 191.659559 311.364523 
L 192.775919 312.578691 
L 193.892279 312.63312 
L 197.24136 312.672494 
L 198.357721 312.080573 
L 199.474081 311.687303 
L 201.706801 313.05259 
L 205.055882 312.986913 
L 207.288603 313.468277 
L 208.404963 312.282556 
L 209.521324 313.01448 
L 213.986765 312.570933 
L 215.103125 311.825629 
L 216.219485 311.344567 
L 217.335846 311.156252 
L 220.684926 310.393821 
L 221.801287 310.890476 
L 222.917647 310.252043 
L 224.034007 310.180698 
L 225.150368 310.90567 
L 228.499449 310.299096 
L 229.615809 310.613897 
L 230.732169 310.599377 
L 231.848529 311.540068 
L 232.96489 311.926484 
L 236.313971 311.113318 
L 238.546691 308.876089 
L 239.663051 309.160415 
L 240.779412 309.059854 
L 244.128493 308.126 
L 245.244853 308.189852 
L 246.361213 308.56535 
L 247.477574 308.039551 
L 248.593934 308.245392 
L 251.943015 308.517045 
L 253.059375 307.330184 
L 254.175735 307.565686 
L 255.292096 307.069019 
L 256.408456 306.415444 
L 259.757537 306.471106 
L 260.873897 306.217076 
L 261.990257 306.158246 
L 263.106618 305.265651 
L 264.222978 304.606647 
L 267.572059 303.652634 
L 268.688419 302.669891 
L 269.804779 302.822455 
L 270.92114 301.647739 
L 272.0375 301.773316 
L 275.386581 301.533472 
L 276.502941 300.859671 
L 277.619301 301.317326 
L 278.735662 302.771394 
L 279.852022 303.223597 
L 283.201103 302.675656 
L 284.317463 301.94042 
L 285.433824 301.370132 
L 286.550184 301.319679 
L 287.666544 301.67217 
L 291.015625 300.845012 
L 292.131985 300.442522 
L 293.248346 299.046831 
L 294.364706 299.507865 
L 295.481066 298.170726 
L 298.830147 296.763846 
L 299.946507 297.074513 
L 301.062868 296.173281 
L 302.179228 296.259347 
L 303.295588 293.956232 
L 306.644669 291.434785 
L 307.761029 291.978028 
L 308.87739 293.337969 
L 309.99375 291.368034 
L 311.11011 290.725666 
L 314.459191 289.534138 
L 315.575551 291.319404 
L 316.691912 292.112107 
L 317.808272 294.681163 
L 318.924632 291.444085 
L 322.273713 290.579037 
L 323.390074 291.413885 
L 324.506434 291.07295 
L 325.622794 288.714449 
L 330.088235 288.268661 
L 331.204596 287.944754 
L 332.320956 287.108391 
L 333.437316 288.123529 
L 334.553676 288.076309 
L 337.902757 287.483105 
L 339.019118 287.939512 
L 340.135478 286.046386 
L 341.251838 285.455538 
L 342.368199 286.695984 
L 345.717279 285.017513 
L 346.83364 283.9429 
L 356.880882 281.772679 
L 357.997243 284.378323 
L 361.346324 284.442383 
L 362.462684 286.707784 
L 363.579044 285.190233 
L 364.695404 285.421655 
L 365.811765 288.321923 
L 369.160846 287.513486 
L 370.277206 285.812514 
L 371.393566 286.773084 
L 372.509926 286.516553 
L 373.626287 284.991343 
L 376.975368 283.406956 
L 378.091728 284.175638 
L 379.208088 282.193147 
L 380.324449 283.336684 
L 381.440809 284.033258 
L 384.78989 283.33127 
L 385.90625 285.011255 
L 387.02261 284.865617 
L 388.138971 283.330384 
L 389.255331 283.541252 
L 392.604412 282.770199 
L 393.720772 283.530715 
L 394.837132 283.776588 
L 395.953493 282.125938 
L 397.069853 284.177373 
L 400.418934 284.394277 
L 401.535294 285.658263 
L 402.651654 285.599075 
L 403.768015 286.282122 
L 404.884375 289.779207 
L 408.233456 288.940014 
L 409.349816 287.644413 
L 410.466176 287.164159 
L 411.582537 287.298926 
L 412.698897 286.46969 
L 416.047978 285.307247 
L 417.164338 286.271364 
L 418.280699 287.044803 
L 419.397059 286.607014 
L 420.513419 285.55778 
L 423.8625 284.619746 
L 424.97886 285.657084 
L 426.095221 285.237993 
L 427.211581 286.276189 
L 428.327941 285.179941 
L 431.677022 285.976543 
L 432.793382 287.796063 
L 433.909743 285.860657 
L 435.026103 286.345048 
L 436.142463 285.389286 
L 439.491544 283.888983 
L 440.607904 283.714171 
L 441.724265 282.798805 
L 442.840625 282.440766 
L 443.956985 281.909658 
L 447.306066 282.460463 
L 448.422426 282.292108 
L 449.538787 282.527708 
L 455.120588 279.658248 
L 456.236949 277.402195 
L 457.353309 276.906301 
L 458.469669 276.917294 
L 459.586029 275.172454 
L 462.93511 272.085375 
L 464.051471 273.473443 
L 465.167831 272.57056 
L 467.400551 273.339234 
L 470.749632 273.021962 
L 471.865993 273.671597 
L 474.098713 271.973129 
L 475.215074 270.564573 
L 478.564154 270.91355 
L 479.680515 270.815521 
L 480.796875 269.38447 
L 481.913235 268.73482 
L 483.029596 270.709904 
L 486.378676 275.306637 
L 487.495037 272.669882 
L 488.611397 272.382347 
L 489.727757 274.383293 
L 490.844118 274.985028 
L 494.193199 272.045686 
L 495.309559 271.758731 
L 496.425919 271.890725 
L 497.542279 271.527703 
L 498.65864 273.009169 
L 510.938603 271.806619 
L 512.054963 270.496513 
L 513.171324 270.703683 
L 514.287684 269.96807 
L 517.636765 269.793309 
L 518.753125 273.210111 
L 519.869485 274.680227 
L 520.985846 273.598036 
L 522.102206 272.944337 
L 525.451287 273.553528 
L 526.567647 272.004607 
L 527.684007 271.787182 
L 528.800368 272.319296 
L 529.916728 273.59816 
L 533.265809 273.640091 
L 534.382169 275.290794 
L 535.498529 274.318609 
L 536.61489 276.776523 
L 537.73125 278.042873 
L 541.080331 282.656657 
L 542.196691 280.48981 
L 543.313051 278.645646 
L 544.429412 280.343128 
L 545.545772 279.170221 
L 548.894853 279.344564 
L 550.011213 281.289516 
L 551.127574 278.99663 
L 552.243934 280.875853 
L 553.360294 281.923919 
L 557.825735 281.276261 
L 558.942096 276.373108 
L 560.058456 277.490247 
L 561.174816 276.308603 
L 564.523897 276.212188 
L 565.640257 274.73302 
L 566.756618 275.135679 
L 567.872978 273.331389 
L 568.989338 273.564163 
L 572.338419 272.710622 
L 573.454779 272.840354 
L 574.57114 272.24642 
L 575.6875 273.349184 
L 576.80386 273.804939 
L 580.152941 273.259944 
L 581.269301 274.380232 
L 582.385662 272.563573 
L 590.200184 269.429386 
L 591.316544 268.337425 
L 592.432904 268.619043 
L 595.781985 266.992812 
L 596.898346 267.820728 
L 598.014706 266.579697 
L 599.131066 269.206898 
L 600.247426 270.824073 
L 603.596507 271.339777 
L 604.712868 270.765112 
L 605.829228 270.765421 
L 606.945588 273.126843 
L 608.061949 271.90046 
L 611.411029 270.604195 
L 612.52739 270.996817 
L 613.64375 272.499819 
L 614.76011 272.767418 
L 615.876471 273.97956 
L 619.225551 274.162846 
L 620.341912 273.800418 
L 621.458272 273.785331 
L 622.574632 274.928777 
L 623.690993 276.349769 
L 627.040074 279.817982 
L 628.156434 277.710599 
L 629.272794 279.078662 
L 630.389154 279.792877 
L 631.505515 278.154089 
L 634.854596 275.337207 
L 635.970956 275.543987 
L 637.087316 275.156935 
L 638.203676 275.168448 
L 642.669118 272.794768 
L 643.785478 276.303172 
L 644.901838 275.581258 
L 646.018199 275.293531 
L 647.134559 278.336246 
L 650.48364 276.42555 
L 651.6 275.19552 
L 651.6 275.19552 
" clip-path="url(#p5740a7309a)" style="fill: none; stroke: #c86f2a; stroke-width: 1.9; stroke-linecap: square"/>
   </g>
   <g id="line2d_21">
    <path d="M 44.3 316.020055 
L 45.41636 317.056987 
L 48.765441 317.199012 
L 49.881801 316.576922 
L 52.114522 316.948961 
L 53.230882 318.035551 
L 56.579963 318.264075 
L 57.696324 316.016731 
L 58.812684 316.578733 
L 59.929044 316.478823 
L 61.045404 316.204653 
L 65.510846 315.739902 
L 66.627206 316.556014 
L 67.743566 316.401792 
L 68.859926 315.734194 
L 72.209007 316.096054 
L 82.25625 316.600306 
L 84.488971 314.362339 
L 87.838051 314.170702 
L 88.954412 314.581693 
L 90.070772 313.739698 
L 91.187132 314.077211 
L 92.303493 313.300738 
L 95.652574 313.108414 
L 96.768934 313.901989 
L 97.885294 313.274351 
L 99.001654 313.532587 
L 100.118015 312.396661 
L 103.467096 312.596734 
L 104.583456 313.607004 
L 105.699816 312.820856 
L 106.816176 312.633438 
L 107.932537 314.423184 
L 112.397978 314.533869 
L 113.514338 314.136107 
L 114.630699 312.905773 
L 115.747059 313.185995 
L 119.09614 313.534742 
L 120.2125 313.245556 
L 122.445221 313.929592 
L 123.561581 311.752149 
L 126.910662 311.976111 
L 128.027022 311.725417 
L 129.143382 311.669364 
L 130.259743 312.475801 
L 131.376103 313.858132 
L 134.725184 313.39611 
L 135.841544 313.454662 
L 136.957904 313.751276 
L 138.074265 313.45198 
L 139.190625 313.847357 
L 142.539706 314.486069 
L 144.772426 314.553012 
L 145.888787 315.077623 
L 150.354228 321.314852 
L 151.470588 319.90909 
L 152.586949 319.08296 
L 153.703309 317.975164 
L 154.819669 317.622062 
L 159.28511 317.376343 
L 160.401471 317.110748 
L 162.634191 317.117557 
L 165.983272 316.834241 
L 169.332353 316.846254 
L 170.448713 316.785798 
L 174.914154 317.059005 
L 176.030515 317.162308 
L 182.728676 316.291794 
L 184.961397 315.274945 
L 186.077757 315.429464 
L 189.426838 314.410322 
L 190.543199 314.280838 
L 191.659559 313.204404 
L 192.775919 314.030007 
L 193.892279 314.445284 
L 197.24136 314.719018 
L 199.474081 313.819503 
L 200.590441 313.877184 
L 201.706801 314.601432 
L 205.055882 315.109627 
L 206.172243 315.58442 
L 207.288603 315.656865 
L 208.404963 315.141884 
L 209.521324 315.565277 
L 213.986765 315.295188 
L 215.103125 314.91164 
L 216.219485 314.709595 
L 217.335846 314.791486 
L 220.684926 314.533296 
L 221.801287 314.986791 
L 222.917647 314.318276 
L 224.034007 314.373893 
L 225.150368 315.016205 
L 228.499449 314.795819 
L 229.615809 314.874134 
L 230.732169 314.768858 
L 231.848529 315.499732 
L 236.313971 315.160178 
L 237.430331 314.102567 
L 238.546691 312.817991 
L 239.663051 313.140006 
L 240.779412 313.696231 
L 246.361213 313.193538 
L 247.477574 312.634539 
L 248.593934 312.310483 
L 251.943015 312.700863 
L 253.059375 311.937939 
L 254.175735 312.099612 
L 255.292096 311.672665 
L 256.408456 311.563011 
L 260.873897 311.465416 
L 261.990257 311.737362 
L 264.222978 310.560192 
L 267.572059 309.939867 
L 268.688419 309.17527 
L 269.804779 309.156677 
L 270.92114 308.485686 
L 272.0375 308.987141 
L 275.386581 308.788604 
L 276.502941 308.417184 
L 277.619301 308.435226 
L 278.735662 310.169492 
L 279.852022 310.643184 
L 283.201103 310.281576 
L 284.317463 309.530803 
L 285.433824 309.300743 
L 286.550184 309.273667 
L 287.666544 309.496024 
L 291.015625 309.093815 
L 292.131985 308.605175 
L 293.248346 307.854287 
L 294.364706 307.92914 
L 295.481066 307.263353 
L 298.830147 306.413747 
L 299.946507 306.781453 
L 301.062868 305.680512 
L 302.179228 305.298225 
L 303.295588 303.23658 
L 306.644669 301.1452 
L 307.761029 301.526501 
L 308.87739 303.050239 
L 309.99375 301.269916 
L 311.11011 300.513893 
L 314.459191 299.895998 
L 316.691912 301.360519 
L 317.808272 303.5298 
L 318.924632 301.34917 
L 322.273713 301.183005 
L 323.390074 301.900925 
L 324.506434 301.69214 
L 325.622794 299.338352 
L 326.739154 299.93527 
L 330.088235 299.681757 
L 331.204596 299.904572 
L 332.320956 299.269849 
L 333.437316 300.482943 
L 334.553676 300.395596 
L 337.902757 299.921285 
L 339.019118 299.986165 
L 340.135478 298.924863 
L 341.251838 298.29633 
L 342.368199 299.292179 
L 346.83364 297.214096 
L 356.880882 295.637056 
L 357.997243 297.761082 
L 361.346324 298.28505 
L 362.462684 299.544019 
L 363.579044 298.002857 
L 364.695404 297.724676 
L 365.811765 300.113265 
L 369.160846 299.563368 
L 370.277206 297.966543 
L 371.393566 298.317353 
L 372.509926 298.00155 
L 373.626287 296.755787 
L 376.975368 295.48719 
L 378.091728 296.038463 
L 379.208088 294.757715 
L 380.324449 295.627221 
L 381.440809 297.214692 
L 384.78989 296.92271 
L 385.90625 297.718325 
L 387.02261 297.522127 
L 388.138971 296.005679 
L 389.255331 296.340602 
L 392.604412 295.967897 
L 393.720772 296.951069 
L 394.837132 297.094538 
L 395.953493 295.80689 
L 397.069853 297.501883 
L 400.418934 298.191651 
L 401.535294 298.876214 
L 402.651654 298.415429 
L 403.768015 298.950608 
L 404.884375 301.503186 
L 408.233456 301.63063 
L 409.349816 300.659563 
L 410.466176 300.035524 
L 411.582537 300.086465 
L 412.698897 299.828344 
L 416.047978 298.686091 
L 418.280699 299.727769 
L 419.397059 299.37203 
L 420.513419 298.501515 
L 423.8625 297.648287 
L 424.97886 298.187753 
L 426.095221 298.334387 
L 427.211581 299.24321 
L 428.327941 298.58375 
L 431.677022 299.246075 
L 432.793382 300.495644 
L 433.909743 298.608395 
L 435.026103 299.229294 
L 439.491544 297.880525 
L 442.840625 297.171844 
L 443.956985 296.834744 
L 447.306066 297.244381 
L 448.422426 296.971335 
L 449.538787 297.46064 
L 455.120588 295.447597 
L 456.236949 293.775209 
L 457.353309 294.096811 
L 458.469669 294.991191 
L 459.586029 294.503606 
L 462.93511 293.793045 
L 464.051471 294.455233 
L 465.167831 294.893138 
L 466.284191 294.675389 
L 467.400551 295.123725 
L 470.749632 295.064508 
L 471.865993 295.421645 
L 474.098713 295.310891 
L 475.215074 295.797192 
L 479.680515 295.723944 
L 480.796875 295.44198 
L 481.913235 294.619427 
L 483.029596 295.709088 
L 486.378676 298.009918 
L 487.495037 296.769015 
L 488.611397 295.884631 
L 490.844118 297.147543 
L 494.193199 295.417564 
L 495.309559 295.297456 
L 496.425919 295.53765 
L 497.542279 295.405597 
L 498.65864 296.762161 
L 510.938603 295.681486 
L 512.054963 295.031724 
L 513.171324 295.238331 
L 514.287684 295.610347 
L 517.636765 295.197179 
L 518.753125 296.865556 
L 519.869485 298.086834 
L 520.985846 297.053639 
L 522.102206 296.761404 
L 525.451287 297.792697 
L 526.567647 296.433176 
L 527.684007 295.751364 
L 529.916728 296.561927 
L 533.265809 296.506469 
L 534.382169 297.288697 
L 535.498529 296.809686 
L 536.61489 298.530998 
L 537.73125 298.903152 
L 541.080331 302.319572 
L 543.313051 299.580654 
L 544.429412 300.954641 
L 545.545772 300.380672 
L 548.894853 300.624143 
L 550.011213 301.584756 
L 551.127574 299.841985 
L 552.243934 300.923003 
L 553.360294 301.797048 
L 557.825735 301.801014 
L 558.942096 298.248896 
L 560.058456 298.921355 
L 561.174816 297.308734 
L 564.523897 297.088876 
L 565.640257 295.825001 
L 566.756618 296.192662 
L 567.872978 295.015171 
L 568.989338 295.197133 
L 573.454779 294.295555 
L 574.57114 293.570413 
L 576.80386 294.2641 
L 580.152941 294.227924 
L 581.269301 294.519975 
L 582.385662 293.324648 
L 583.502022 293.394343 
L 590.200184 291.794445 
L 591.316544 291.257593 
L 592.432904 291.913224 
L 595.781985 290.080905 
L 596.898346 290.167794 
L 598.014706 289.014719 
L 599.131066 290.934637 
L 600.247426 292.195646 
L 603.596507 292.793298 
L 604.712868 292.349478 
L 605.829228 292.399525 
L 606.945588 293.949353 
L 608.061949 292.528001 
L 612.52739 290.17231 
L 613.64375 291.081958 
L 614.76011 290.943441 
L 615.876471 291.449917 
L 619.225551 292.547282 
L 620.341912 290.935509 
L 621.458272 290.379559 
L 622.574632 291.160479 
L 623.690993 293.173957 
L 627.040074 295.541822 
L 628.156434 293.520343 
L 629.272794 294.740406 
L 630.389154 295.340626 
L 631.505515 294.081795 
L 634.854596 291.459294 
L 635.970956 291.630778 
L 637.087316 290.549737 
L 638.203676 290.315596 
L 642.669118 287.609003 
L 643.785478 290.824846 
L 644.901838 290.283018 
L 646.018199 288.515809 
L 647.134559 291.997843 
L 650.48364 290.6521 
L 651.6 289.448223 
L 651.6 289.448223 
" clip-path="url(#p5740a7309a)" style="fill: none; stroke: #3978a8; stroke-width: 1.9; stroke-linecap: square"/>
   </g>
   <g id="patch_3">
    <path d="M 44.3 333.65 
L 44.3 65.376 
" style="fill: none; stroke: #a49d8f; stroke-width: 0.8; stroke-linejoin: miter; stroke-linecap: square"/>
   </g>
   <g id="patch_4">
    <path d="M 44.3 333.65 
L 651.6 333.65 
" style="fill: none; stroke: #a49d8f; stroke-width: 0.8; stroke-linejoin: miter; stroke-linecap: square"/>
   </g>
   <g id="text_14">
    <text style="fill: #111312; font: 700 14px 'DejaVu Sans'; text-anchor: start" x="44.3" y="43.91408" transform="rotate(-0 44.3 43.91408)">Out-of-sample window: 2025-2026.06</text>
   </g>
   <g id="text_15">
    <text style="fill: #62635f; font: 9.5px 'DejaVu Sans'; text-anchor: start" x="44.3" y="58.66915" transform="rotate(-0 44.3 58.66915)">Strategy vs equal-weight ETF pool and CSI 300</text>
   </g>
   <g id="legend_1">
    <g id="line2d_22">
     <path d="M 52.13 78.113011 
L 60.83 78.113011 
L 69.53 78.113011 
" style="fill: none; stroke: #111312; stroke-width: 2.7; stroke-linecap: square"/>
    </g>
    <g id="text_16">
     <text style="font: 8.7px 'DejaVu Sans'; text-anchor: start" x="76.49" y="81.158011" transform="rotate(-0 76.49 81.158011)">Strategy</text>
    </g>
    <g id="line2d_23">
     <path d="M 131.168141 78.113011 
L 139.868141 78.113011 
L 148.568141 78.113011 
" style="fill: none; stroke: #c86f2a; stroke-width: 1.9; stroke-linecap: square"/>
    </g>
    <g id="text_17">
     <text style="font: 8.7px 'DejaVu Sans'; text-anchor: start" x="155.528141" y="81.158011" transform="rotate(-0 155.528141 81.158011)">Equal-weight ETF Pool</text>
    </g>
    <g id="line2d_24">
     <path d="M 269.021 78.113011 
L 277.721 78.113011 
L 286.421 78.113011 
" style="fill: none; stroke: #3978a8; stroke-width: 1.9; stroke-linecap: square"/>
    </g>
    <g id="text_18">
     <text style="font: 8.7px 'DejaVu Sans'; text-anchor: start" x="293.381" y="81.158011" transform="rotate(-0 293.381 81.158011)">CSI 300</text>
    </g>
   </g>
  </g>
 </g>
 <defs>
  <clipPath id="p5740a7309a">
   <rect x="44.3" y="65.376" width="607.3" height="268.274"/>
  </clipPath>
 </defs>
</svg>
